# xmcd
#
# Track frame offsets:
#	183
#	10233
#	21150
#	32198
#	47400
#	60810
#	74625
#	86430
#	99255
#	115710
#	130913
#	144200
#	157268
#	170705
#	180983
#	193370
#
# Disc length: 2748 seconds
#
# Revision: 1
# Processed by: cddbd v1.5PL3 Copyright (c) Steve Scherf et al.
# Submitted via: MusicWizard 6.0.1
#
DISCID=d10aba10
DTITLE=Howlin´ Wolf - Portrait In Blues - Disc 2
DYEAR=1900
DGENRE=Blues
TTITLE0=Shake For Me
TTITLE1=The Red Rooster
TTITLE2=You´ll Be Mine
TTITLE3=Going Down Slow
TTITLE4=Tail Dragger
TTITLE5=Three Hundred Pounds Of Joy
TTITLE6=Built For Comfort
TTITLE7=Killing Floor
TTITLE8=Rockin´ Daddy
TTITLE9=I Ain´t Superstitious
TTITLE10=Worried About My Baby
TTITLE11=What A Woman !
TTITLE12=Poor Boy
TTITLE13=Do The Do
TTITLE14=Highway 49
TTITLE15=Baby How Long
EXTD=
EXTT0=
EXTT1=
EXTT2=
EXTT3=
EXTT4=
EXTT5=
EXTT6=
EXTT7=
EXTT8=
EXTT9=
EXTT10=
EXTT11=
EXTT12=
EXTT13=
EXTT14=
EXTT15=
PLAYORDER=
